/* XPM */
static char *a5d598c6e1524b8583a91ec66ac1da38D5sjOePywGX2O6bR[] = {
/* columns rows colors chars-per-pixel */
"64 64 3 1 ",
"  c None",
". c #04EEFF",
"X c white",
/* pixels */
"                                                                ",
"                                                                ",
"                                                                ",
"                                                                ",
"                                                                ",
"                                                                ",
"                                                                ",
"                                                                ",
"                                                                ",
"                                                                ",
"                                                                ",
"                                                                ",
"                                                                ",
"                                                                ",
"XXXXXXXXXXXXXXXXXXXXXXXXXXXXX                                   ",
"XXXXXXXXXXXXXXXXXXXXXXXXXXXXX                                   ",
"...........................XX                                   ",
"...........................XX                                   ",
"...........................XX                                   ",
"...........................XX                                   ",
"...........................XX                                   ",
"...........................XX                                   ",
"...........................XX                                   ",
"..XXXXXXXXXXXXXXX..........XX                                   ",
".X...............X.........XX                                   ",
".X.XXXXXX.XXXXXX.X.........XX                                   ",
".X...XX.....XX...X.........XX                                   ",
".X...XXX....XX...X.........XX                                   ",
".X...XXXX...XX...X.........XX                                   ",
".X...XX.XX..XX...X.........XX             XXXXXXXXXXXXXXXXXXXXXX",
".X...XX..X..XX...X.........XX             XXXXXXXXXXXXXXXXXXXXXX",
".X...XX..XX.XX...X.........XX             XX....................",
".X...XX...XXXX...X.........XX             XX....................",
".X...XX....XXX...X.........XX             XX....................",
".X...XX.....XX...X.........XXXXXXXXXXXXXXXXX....................",
".X.XXXXXX.XXXXXX.X.........XXXXXXXXXXXXXXXXX....................",
".X...............X.........XX.............XX....................",
"..XXXXXXXXXXXXXXX..........XX.............XX....................",
"...........................XX.............XX....................",
"...........................XX.............XX....................",
"...........................XX.............XX....................",
"...........................XX.............XX....................",
"...........................XX.............XX....................",
"...........................XX.............XX....................",
"...........................XX.............XX....................",
"...........................XX.............XX....................",
"...........................XX.............XX....................",
"...........................XX.............XX....................",
"...........................XX.............XX....................",
"...........................XX.............XX....................",
"...........................XX.............XX....................",
"...........................XX.............XX....................",
"...........................XX.............XX....................",
"...........................XX.............XX....................",
"...........................XX.............XX....................",
"...........................XX.............XX....................",
"...........................XX.............XX....................",
"...........................XX.............XX....................",
"...........................XX.............XX....................",
"....................XXXX...XX....XXXX.....XX..XXXX..............",
"....................XXXX...XX....XXXX.....XX..XXXX..............",
"....................XXXX...XX....XXXX.....XX..XXXX..............",
"....................XXXX...XX....XXXX.....XX..XXXX..............",
"....................XXXX...XX....XXXX.....XX..XXXX.............."
};
