/* XPM */
static char *_f9607e4b2ea4fbc8c317f7a4a098e35gaP45RCeQkWRculu[] = {
/* columns rows colors chars-per-pixel */
"64 64 3 1 ",
"  c None",
". c #04EEFF",
"X c white",
/* pixels */
"                                                                ",
"                                                                ",
"                                                                ",
"                                                                ",
"                                                                ",
"                                                                ",
"                                                                ",
"                                                                ",
"                                                                ",
"                                                                ",
"                                                                ",
"                                                                ",
"                                                                ",
"                                                                ",
"XXXXXXXXXXXXXXXXXXXXXXXXXXXXX                                   ",
"XXXXXXXXXXXXXXXXXXXXXXXXXXXXX                                   ",
"...........................XX                                   ",
"...........................XX                                   ",
"...........................XX                                   ",
"...........................XX                                   ",
"...........................XX                                   ",
"...........................XX                                   ",
"...........................XX                                   ",
"...........................XX                                   ",
"...........................XX                                   ",
"...........................XX                                   ",
"...........................XX                                   ",
"...........................XX                                   ",
"...........................XX                                   ",
"...........................XX             XXXXXXXXXXXXXXXXXXXXXX",
"...........................XX             XXXXXXXXXXXXXXXXXXXXXX",
"...........................XX             XX....................",
"...........................XX             XX....................",
"...........................XX             XX....................",
"...........................XXXXXXXXXXXXXXXXX....................",
"...........................XXXXXXXXXXXXXXXXX....................",
"...........................XX.............XX....................",
"...........................XX.............XX....................",
"...........................XX.............XX....................",
"...........................XX.............XX....................",
"...........................XX.............XX....................",
"...........................XX.............XX....................",
"...........................XX.............XX....................",
"...........................XX.............XX....................",
"...........................XX.............XX....................",
"...........................XX.............XX....................",
"...........................XX.............XX....................",
"...........................XX.............XX....................",
"...........................XX.............XX....................",
"...........................XX.............XX....................",
"...........................XX.............XX....................",
"...........................XX.............XX....................",
"...........................XX.............XX....................",
"...........................XX.............XX....................",
"...........................XX.............XX....................",
"...........................XX.............XX....................",
"...........................XX.............XX....................",
"...........................XX.............XX....................",
"...........................XX.............XX....................",
"....................XXXX...XX....XXXX.....XX..XXXX..............",
"....................XXXX...XX....XXXX.....XX..XXXX..............",
"....................XXXX...XX....XXXX.....XX..XXXX..............",
"....................XXXX...XX....XXXX.....XX..XXXX..............",
"....................XXXX...XX....XXXX.....XX..XXXX.............."
};
