/* XPM */
static char *_71ca4b8e8104e0db6bf9ed85aa9a569m8a1nEBNnTxwIUc4[] = {
/* columns rows colors chars-per-pixel */
"64 64 4 1 ",
"  c None",
". c #161717",
"X c #04EEFF",
"o c white",
/* pixels */
"                                                                ",
"                                                                ",
"                                                                ",
"                                                                ",
"                                                                ",
"                                                                ",
"                                                                ",
"                                                                ",
"                                                                ",
"                                                                ",
"                                                                ",
"                                                                ",
"                                                                ",
"                                                                ",
"ooooooooooooooooooooooooooooo                                   ",
"ooooooooooooooooooooooooooooo                                   ",
"XXXXXXXXXXXXXXXXXXXXXXXXXXXoo                                   ",
"XXXXXXXXXXXXXXXXXXXXXXXXXXXoo                                   ",
"XooXooXoooooXoooXXoooooXXXXoo                                   ",
"XooXooXoXXXoXoXXoXoXXXoXXXXoo                                   ",
"XoXoXoXoXXXoXoXXoXoXXXoXXXXoo                                   ",
"XoXXXoXoooooXoXXoXoooooXXXXoo                                   ",
"XoXXXoXoXXXoXoXXoXoXXXoXooXoo                                   ",
"XoXXXoXoXXXoXoooXXoXXXoXooXoo                                   ",
"XXXXXXXXXXXXXXXXXXXXXXXXXXXoo                                   ",
"XXXXXXXXXXXXXXXXXXXXXXXXXXXoo                                   ",
"XXXXXXXXXXXXXXXXXXXXXXXXXXXoo                                   ",
"XXXXXXoooXooooXXXXXXXXXXXXXoo                                   ",
"XXoooooXooXXXooXXXXXXXXXXXXoo                                   ",
"XXoXXXXXXXXXXXXooXXXXXXXXXXoo             oooooooooooooooooooooo",
"XXoXXXXXXXXXXXXXXoooXXXXXXXoo             oooooooooooooooooooooo",
"XooXXXXXXXXXXXXXXXXooXXXXXXoo             ooXXXXXXXXXXXXXXXXXXXX",
"XoXXXXXXXXXXXXXXXoooooXXXXXoo             ooXXXXXXXXXXXXXXXXXXXX",
"XoXXXoooooXXXXXXoooooXooXXXoo             ooXXXXXXXXXXXXXXXXXXXX",
"XoXXXooooooXXXXXoooooXXoXXXoooooooooooooooooXXXXXXXXXXXXXXXXXXXX",
"oXXXXXoooooXXXXXoooooXXooXXoooooooooooooooooXXXXXXXXXXXXXXXXXXXX",
"oXXXXXXooooXXXXXXooooXXXoXXooXXXXXXXXXXXXXooXXXXXXXXXXXXXXXXXXXX",
"oXXXXXXooooXXXXXXXXXXXXXXoXooXXXXXXXXXXXXXooXXXXXXXXXXXXXXXXXXXX",
"oXXXXXXXooXXXXXXXXXXXXXXXoXooXXXXXXXXXXXXXooXXXXXXXXXXXXXXXXXXXX",
"oXXXXXXXXXXXXXXXXXXXXXXXXoXooXXXXXXXXXXXXXooXXXXXXXXXXXXXXXXXXXX",
"ooXXXXXXXXXXXXXXXXXXXXXXXoXooXXXXXXXXXXXXXooXXXXXXXXXXXXXXXXXXXX",
"XoXXXXXXXXXXXXXXXXXXXXXXXoXooXXXXXXXXXXXXXooXXXXXXXXXXXXXXXXXXXX",
"XooXXXXXXXXXXXXXXXXXXXXXXoXooXXXXXXXXXXXXXooXXXXXXXXXXXXXXXXXXXX",
"XXoXXXXXXXXXXXXXXXXXXXXXooXooXXXXXXXXXXXXXooXXXXXXXXXXXXXXXXXXXX",
"XXooXXXXoXXXXXXXXXXXXXXooXXooXXXXXXXXXXXXXooXXXXXXXXXXXXXXXXXXXX",
"XXXooXXXXooXXXXoooXXXXooXXXooXXXXXXXXXXXXXooXXXXXXXXXXXXXXXXXXXX",
"XXXXooXXXXXoooooXXXXoooXXXXooXXXXXXXXXXXXXooXXXXXXXXXXXXXXXXXXXX",
"XXXXXXoooXXXXXXXXXoooXXXXXXooXXXXXXXXXXXXXooXXXXXXXXXXXXXXXXXXXX",
"XXXXXXXXoooooooooooXXXXXXXXooXXXXXXXXXXXXXooXXXXXXXXXXXXXXXXXXXX",
"XXXXXXXXXXXXXXXXXXXXXXXXXXXooXXXXXXXXXXXXXooXXXXXXXXXXXXXXXXXXXX",
"XXXXXXXXXXXXXXXXXXXXXXXXXXXooXXXXXXXXXXXXXooXXXXXXXXXXXXXXXXXXXX",
"XXXX....XXXXXXXXXXXXXXXXXXXooXXXXXXXXXXXXXooXXXXXXXXXXXXXXXXXXXX",
"XXXX....oXXXXXXXXXXXXXXXXXXooXXXXXXXXXXXXXooXXXXXXXXXXXXXXXXXXXX",
"XXXoo..oooXXXXXXXXXXXXXXXXXooXXXXXXXXXXXXXooXXXXXXXXXXXXXXXXXXXX",
"XXXo..o...XXXXXXXXXXXXXXXXXooXXXXXXXXXXXXXooXXXXXXXXXXXXXXXXXXXX",
"XXXo...o..XXXXXXXXXXXXXXXXXooXXXXXXXXXXXXXooXXXXXXXXXXXXXXXXXXXX",
"XXXX...o..XXXXXXXXXXXXXXXXXooXXXXXXXXXXXXXooXXXXXXXXXXXXXXXXXXXX",
"XXXXXXooXXXXXXXXXXXXXXXXXXXooXXXXXXXXXXXXXooXXXXXXXXXXXXXXXXXXXX",
"XXXXXXXXXXXXXXXXXXXXXXXXXXXooXXXXXXXXXXXXXooXXXXXXXXXXXXXXXXXXXX",
"XXXXXXXXXXXXXXXXXXXXooooXXXooXXXXooooXXXXXooXXooooXXXXXXXXXXXXXX",
"XXXXXXXXXXXXXXXXXXXXooooXXXooXXXXooooXXXXXooXXooooXXXXXXXXXXXXXX",
"XXXXXXXXXXXXXXXXXXXXooooXXXooXXXXooooXXXXXooXXooooXXXXXXXXXXXXXX",
"XXXXXXXXXXXXXXXXXXXXooooXXXooXXXXooooXXXXXooXXooooXXXXXXXXXXXXXX",
"XXXXXXXXXXXXXXXXXXXXooooXXXooXXXXooooXXXXXooXXooooXXXXXXXXXXXXXX"
};
