/* XPM */
static char *_0bd5d2751c24506b962f471350868a5f99Fy91ylje8zcri[] = {
/* columns rows colors chars-per-pixel */
"100 100 15 1 ",
"  c None",
". c black",
"X c #000305",
"o c #3C1405",
"O c #332E2E",
"+ c #40271E",
"@ c #4B3127",
"# c #56372B",
"$ c #453737",
"% c #BB0E0E",
"& c #DD6C12",
"* c #004BFF",
"= c #50ACBF",
"- c #009AFF",
"; c white",
/* pixels */
"                                                                                                    ",
"                                                                                                    ",
"                                                                                                    ",
"                                                                                                    ",
"                                                                                                    ",
"                                                                                                    ",
"                                                                                                    ",
"                                                                                                    ",
"                                                                                                    ",
"                                                                                                    ",
"                                                                                                    ",
"                                                                                                    ",
"                                                                                                    ",
"                                                                                                    ",
"                                                                                                    ",
"                                                                                                    ",
"                                                                                                    ",
"                                                                                                    ",
"                                                                                                    ",
"                                                                                                    ",
"                                                                                                    ",
"                                                                                                    ",
"                                                                                                    ",
"                                                                                                    ",
"                                                                                                    ",
"                                                                                                    ",
"                                                                                                    ",
"                                                                                                    ",
"                                                                                                    ",
"                                                                                                    ",
"                                                                                                    ",
"                                                                                                    ",
"...................                                                                      ...........",
";;;;;;;;;;;;;;;;;;.                                                                      .;;;;;;;;;;",
";;;;;;;;;;;;;;;;;;.                                                                      .;;;;;;;;;;",
";;;;;;;;;;;;;;;;;;.                                                                      .;;;;;;;;;;",
"------------------.                                                                      .----------",
"------------------.                                                                      .----------",
"------------------.                                                                      .----------",
"-----------...........................................                                   .----------",
"-----------.;;;;;;;;;;;;;;;;;;;;;;;;;;;;;;;;;;;;;;;;;.                                   .----------",
"-----------.;;;;;;;;;;;;;;;;;;;;;;;;;;;;;;;;;;;;;;;;;.                                   .----------",
"-----------.;;;;;;;;;;;;;;;;;;;;;;;;;;;;;;;;;;;;;;;;;.                                   .----------",
"-----------.-----------------------------------------.                                   .----------",
"-----------.-----------------------------------------.                                   .----------",
"-----------.-----------------------------------------.                                   .----------",
"-----------.-----------------------------------------.                                   .----------",
"-----------.-----------------------------------------.                                   .----------",
"-----------.-----------------------------------------.                                   .----------",
"-----------.-----------------------------------------.                                   .----------",
"-----------.-----------------------------------------.                                   .----------",
"-----------.-----------------------------------------.                                   .----------",
"-----------.--------;;;;;;;;;;;;;;-------------------.                                   .----------",
"-----------.------;;;;;;;;;;;;;;;;;;-----------------.                                   .----------",
"-----------.-----;;;;------------;;;;----------------.                                   .----------",
"-----------.-----;;----------------;;----------------.                                   .----------",
"-----------.----;;--;;;;;;--;;;;;;--;;---------------.                                   .----------",
"-----------.----;;--;;;;;;--;;;;;;--;;---------------.                                   .----------",
"-----------.----;;----;;------;;----;;---------------.                                   .----------",
"-----------.----;;----;;------;;----;;---------------.                                   .----------",
"-----------.----;;----;;;;----;;----;;---------------.                                   .----------",
"-----------.----;;----;;;;;---;;----;;---------------........................................-------",
"-----------.----;;----;;-;;;--;;----;;---------------.;;;;;;;;;;;;;;;;;;;;;;;;;;;;;;;;;;;;;;.-------",
"-----------.----;;----;;--;;--;;----;;---------------.;;;;;;;;;;;;;;;;;;;;;;;;;;;;;;;;;;;;;;.-------",
"-----------.----;;----;;--;;--;;----;;---------------.;;;;;;;;;;;;;;;;;;;;;;;;;;;;;;;;;;;;;;.-------",
"-----------.----;;----;;--;;;-;;----;;---------------.;;;;;;;;;;;;;;;;;;;;;;;;;;;;;;;;;;;;;;.-------",
"-----------.----;;----;;---;;;;;----;;---------------.--------------------------------------.-------",
"-----------.----;;----;;----;;;;----;;---------------.--------------------------------------.-------",
"-----------.----;;----;;------;;----;;---------------.--------------------------------------.-------",
"-----------.----;;----;;------;;----;;---------------.--------------------------------------.-------",
"-----------.----;;--;;;;;;--;;;;;;--;;---------------.--------------------------------------.-------",
"-----------.----;;--;;;;;;--;;;;;;--;;---------------.--------------------------------------.-------",
"-----------.-----;;----------------;;----------------.--------------------------------------.-------",
"-----------.-----;;;;------------;;;;----------------.--------------------------------------.-------",
"-----------.------;;;;;;;;;;;;;;;;;------------------.--------------------------------------.-------",
"-----------.-------;;;;;;;;;;;;;;;-------------------.--------------------------------------.-------",
"-----------.-----------------------------------------.--------------------------------------.-------",
"-----------.-----------------------------------------.--------------------------------------.-------",
"-----------.-----------------------------------------.--------------------------------------.-------",
"-----------.-----------------------------------------.--------------------------------------.-------",
"-----------.-----------------------------------------.--------------------------------------.-------",
"-----------.-----------------------------------------.--------------------------------------.-------",
"-----------.-----------------------------------------.--------------------------------------.-------",
"-----------.-----------------------------------------.--------------------------------------.-------",
"-----------.-----------------------------------------.--------------------------------------.-------",
"-----------.-----------------------------------------.--------------------------------------.-------",
"-----------.-----------------------------------------.--------------------------------------.-------",
"-----------.-----------------------------------------.--------------------------------------.-------",
"-----------.-----------------------------------------.--------------------------------------.-------",
"-----------.-----------------------------------------.--------------------------------------.-------",
"-----------.---------------+++++---------------------.--------------------------------------.-------",
"-----------.---------------+++++---------------------.--------------------------------------.-------",
"-----------.--------------+++++++--------------------.----------------------------++++------.-------",
"-----------.-------------+++++++++-------------------.----********---------------++++++-----.-------",
"-----------.-------------+++++++++-------------------.---**==**=**--------------++++++++----.-------",
"-----------.-------------+++++++++-------------------.---**==**==**-------------++++++++----.-------",
"-----------.-------------+++++++++-------------------.--*************-----------++++++++----.-------",
"-----------.-------------+++++++++-------------------.--*************-----------++++++++----.-------",
"-----------.-------------+++++++++-------------------.--*..******..**-----------++++++++----.-------",
"-----------.-------------+++++++++-------------------.---..------..-------------++++++++----.-------"
};
