/* XPM */
static char *_0bd5d2751c24506b962f471350868a5f99Fy91ylje8zcri[] = {
/* columns rows colors chars-per-pixel */
"100 100 15 1 ",
"  c None",
". c black",
"X c #000305",
"o c #3C1405",
"O c #332E2E",
"+ c #40271E",
"@ c #4B3127",
"# c #56372B",
"$ c #453737",
"% c #BB0E0E",
"& c #DD6C12",
"* c #004BFF",
"= c #50ACBF",
"- c #009AFF",
"; c white",
/* pixels */
"                                                         OOOOOOOOOOOOOOOOOOOOOOOOOOOOOOOOOOOOO$OOOOO",
"                                                        OOOOOOOOOOOOOOOOOOOOOOOOOOOOOOOOOOO$$$OOOOOO",
"                                                        OOOOO$OOOOOOOOOOOOOOOOOOOOOOOOOOO$$OOOOOOOOO",
"                                                        OOOOO$OOOOOOO$OOOOOOOOOOOOOOOO$$$OOOOOOOOOOO",
"                                                        OOOOO$OOOOOO$OOOOOOOOOOOOOOOO$OOOOOOOOOOOOOO",
"                                                        OOOOO$OOOOOO$OOOOOOOOOOOOOOOOOOOOOOOOOOOOOOO",
"                                                         OOOOOOOOOOOOOOOOOOOOOOOOOOOOOOOOOOOOOOOOOOO",
"                                                         OOOOOOOOOOOOOOOOOOOOOOOOOOOOOOOOOO$$OOOOOOO",
"                                                         OOOOOOOOOOOOOOOOOOOOOOOOOOOOOOOO$$OOOOOOOOO",
"                                                          OOOOOOOOOOOOOOOOOOOOOOOOOOOOOOO$OOOOOOOOO ",
"                                                           OOOOOOOOOOOOOOOOO$$OOOOOOOOOOOOOOOO      ",
"                                                           OOOOOOOOOOOOOOOO$$OOOOOOOOOOOOO          ",
"                                                          OOO$OOOOOOOOOOOO$$OOOOOOOOOOOOO           ",
"                                                          OO$OOOOOOOOOOOO$$OOOOOOOOOOOO             ",
"                                                        OOOO$OOOOOOOOOOOOOOOOOOOOOOOO               ",
"                                                      OOOOOOOOOOOOOOOOOOOOOOOOOOOOOO                ",
"                                                     OOOOOOOOOOOO$OOOOOOOOOOOOOOOOO                 ",
"                                                     OOOOOOOOOOOO$OOOOOOOOOO$$OOO                   ",
"                                                    OOOOOOOOOOOOOOOOOOOOOOO$OOO                     ",
"                                                    OO$$OOOOOOOOOOOOOOOOOOO$OO                      ",
"                                                   OO$OOOOOOOOOOOOOOOOOOOO$OOO                      ",
"                                                  OO$$OOOOOOOOOOOOOOOOOO$O$OOO                      ",
"                                                 OO$$OOOOOOOOOOOOOOOOOOO$O$OO                       ",
"                                              ooOOO$OOOOOOOOOOOOOOOOOO$$OOOOO                       ",
"                                          ooooo%OOOOOOOOOOOOOOOOOOOOOO$OOOOooo                      ",
"                                       oooo%%%%%OOOOOOOOOOO%%%%%%%%%%%%%%%%%%%oo@@                  ",
"                                      oo%%%%%%%%&&&%%%%%%%%%%%%%%%%%&&%%%%%%%%oo@@@                 ",
"                                     ooo@%%%%%%&%%%%%%&&%%%%%%%%%%%%%%%%%%%%%oo@#@@@                ",
"                                    @@@@oooo%%%%%%%%%%%%%%%&%%%%%%%%&&%%%%%@oo@@@#@@@@              ",
"                                   @@@@@@@@%%%%%%%%%%%%%%%%%%%%%%%%%%&%%@@ooo@@@@@#@@@@@            ",
"                                 @@@@@@@@@%%@ooo@o%%%%%%%%%%%%%%%%%%@@@@@oo@@@@@@@##@@@@@           ",
"                               @@@@@@@@@@&%@@@@oooooooooooooooo@@@ooooooo@@#@@@@@@@###@@@@@         ",
"...................           @@@@@@@@@@%&%@@@@@@@@@@@@@o@@@@o@ooo@@@@@@@@@##@@@@@@@@@@@@XXXXXXXXXXX",
";;;;;;;;;;;;;;;;;;.          @@@@@##@@@@&%@@@@@@@@@@@@@@@@@@@@@@@@@@@@@@@@@@##@@@@@@@@@@@X;;;;;;;;;;",
";;;;;;;;;;;;;;;;;;.        @@@@@@##@@@@%%%@@@@@@@@@@@@@@@@@@@@@@@@@@@@@@@@@@@##@@@@@@@@@@X;;;;;;;;;;",
";;;;;;;;;;;;;;;;;;.       @@@@###@@@@@%%@@@#####@@@@@@@@@@@@@@@@@@@@@@@@@@@@@@##@@@@@@@@@X;;;;;;;;;;",
"------------------.     @@@###@@@@@@@@@%###@@@@@@@@@@@@#@@@@@#@@@@@@@#@@@@@@@@@#@@@@@@@@@.----------",
"------------------.    @@###@@@@@@@@@@#@@@@@@@@@@@@@@@@#@@@@@#@@@@@@@@#@@@@@@@@@#@@@@@@@@.----------",
"------------------.    @##@@@@@@@@@@@@@@@@@@@@@@@@@@@@@#@@@@@#@@@@@@@@#@@@@@@@@@@#@@@@@@@.----------",
"-----------...........................................@#@@@@@#@@@@@@@@#@@@@@@@@@@@@@@@@@@.----------",
"-----------.;;;;;;;;;;;;;;;;;;;;;;;;;;;;;;;;;;;;;;;;;.@#@@@@#@@@@@@@@@@#@@@@@@@@@@@@@@@@@.----------",
"-----------.;;;;;;;;;;;;;;;;;;;;;;;;;;;;;;;;;;;;;;;;;.@@#@@@#@@@@@@@@@@#@@@@@@@@@@@@@@@@@.----------",
"-----------.;;;;;;;;;;;;;;;;;;;;;;;;;;;;;;;;;;;;;;;;;.@@#@@@#@@@@@@@@@@#@@@@@@@@@@@@@@@@@.----------",
"-----------.-----------------------------------------.@@@@@@#@@@@@@@@@@#@@@@@@@@@#@@@@@@@.----------",
"-----------.-----------------------------------------.@@@@@##@@@@@@@@@@#@@@@@@@@@##@@@@@@.----------",
"-----------.-----------------------------------------.@@@@@#@@@@@@@@@@@##@@@@@@@@@#@@@@@@.----------",
"-----------.-----------------------------------------.@@@@@#@@@@@@#@@@@@#@@@@@@@@@#@@@@@@.----------",
"-----------.-----------------------------------------.@@@@@#@@@@@#@@@@@@#@@@@@@@@@#@@@@@@.----------",
"-----------.-----------------------------------------.@@@@##@@@@@#@@@@@@#@@@@@@@@@#@@@@@@.----------",
"-----------.-----------------------------------------.@@@@@#@@@@@#@@@@@@#@@@@@@@@@#@@@@@@.----------",
"-----------.-----------------------------------------.@@@@##@@@@@#@@@@@@#@@@@@@@@@@#@@@@@.----------",
"-----------.-----------------------------------------.@@@@#@@@@@@#@@@@@@#@@@@@@@@@@#@@@@@.----------",
"-----------.--------;;;;;;;;;;;;;;-------------------.@@@@#@@@@@@#@@@@@@@@@@@#@@@@@#@@@@@.----------",
"-----------.------;;;;;;;;;;;;;;;;;;-----------------.@@@#@@@@@@@#@@@@@@@@@@##@@@@@#@@@@@.----------",
"-----------.-----;;;;------------;;;;----------------.@@@#@@@@@@@#@@@@@@@@@@#@@@@@@@#@@@@.----------",
"-----------.-----;;----------------;;----------------.@@##@@@@@@@#@@@@@@@@@#@@@@@@@@#@@@@.----------",
"-----------.----;;--;;;;;;--;;;;;;--;;---------------.@@#@@@@@@@@#@@@@@@@@@#@@@@@@@@@@@@@.----------",
"-----------.----;;--;;;;;;--;;;;;;--;;---------------.@@#@@@@@@@@#@@@@@@@@@@@@@@@@@@@@@@@.----------",
"-----------.----;;----;;------;;----;;---------------.@##@@@@@@@@##@@@@@@@@@@@@@@@@@@@@@@.----------",
"-----------.----;;----;;------;;----;;---------------.@@@@@@@@@@@@@@@@@@@@@@@@@@@@@@@@@@@.----------",
"-----------.----;;----;;;;----;;----;;---------------.@@@@@@@@@@@@@@@@@@@@@@@@@@@@@@@@@@@.----------",
"-----------.----;;----;;;;;---;;----;;---------------........................................-------",
"-----------.----;;----;;-;;;--;;----;;---------------.;;;;;;;;;;;;;;;;;;;;;;;;;;;;;;;;;;;;;;.-------",
"-----------.----;;----;;--;;--;;----;;---------------.;;;;;;;;;;;;;;;;;;;;;;;;;;;;;;;;;;;;;;.-------",
"-----------.----;;----;;--;;--;;----;;---------------.;;;;;;;;;;;;;;;;;;;;;;;;;;;;;;;;;;;;;;.-------",
"-----------.----;;----;;--;;;-;;----;;---------------.;;;;;;;;;;;;;;;;;;;;;;;;;;;;;;;;;;;;;;.-------",
"-----------.----;;----;;---;;;;;----;;---------------.--------------------------------------.-------",
"-----------.----;;----;;----;;;;----;;---------------.--------------------------------------.-------",
"-----------.----;;----;;------;;----;;---------------.--------------------------------------.-------",
"-----------.----;;----;;------;;----;;---------------.--------------------------------------.-------",
"-----------.----;;--;;;;;;--;;;;;;--;;---------------.--------------------------------------.-------",
"-----------.----;;--;;;;;;--;;;;;;--;;---------------.--------------------------------------.-------",
"-----------.-----;;----------------;;----------------.--------------------------------------.-------",
"-----------.-----;;;;------------;;;;----------------.--------------------------------------.-------",
"-----------.------;;;;;;;;;;;;;;;;;------------------.--------------------------------------.-------",
"-----------.-------;;;;;;;;;;;;;;;-------------------.--------------------------------------.-------",
"-----------.-----------------------------------------.--------------------------------------.-------",
"-----------.-----------------------------------------.--------------------------------------.-------",
"-----------.-----------------------------------------.--------------------------------------.-------",
"-----------.-----------------------------------------.--------------------------------------.-------",
"-----------.-----------------------------------------.--------------------------------------.-------",
"-----------.-----------------------------------------.--------------------------------------.-------",
"-----------.-----------------------------------------.--------------------------------------.-------",
"-----------.-----------------------------------------.--------------------------------------.-------",
"-----------.-----------------------------------------.--------------------------------------.-------",
"-----------.-----------------------------------------.--------------------------------------.-------",
"-----------.-----------------------------------------.--------------------------------------.-------",
"-----------.-----------------------------------------.--------------------------------------.-------",
"-----------.-----------------------------------------.--------------------------------------.-------",
"-----------.-----------------------------------------.--------------------------------------.-------",
"-----------.---------------+++++---------------------.--------------------------------------.-------",
"-----------.---------------+++++---------------------.--------------------------------------.-------",
"-----------.--------------+++++++--------------------.----------------------------++++------.-------",
"-----------.-------------+++++++++-------------------.----********---------------++++++-----.-------",
"-----------.-------------+++++++++-------------------.---**==**=**--------------++++++++----.-------",
"-----------.-------------+++++++++-------------------.---**==**==**-------------++++++++----.-------",
"-----------.-------------+++++++++-------------------.--*************-----------++++++++----.-------",
"-----------.-------------+++++++++-------------------.--*************-----------++++++++----.-------",
"-----------.-------------+++++++++-------------------.--*..******..**-----------++++++++----.-------",
"-----------.-------------+++++++++-------------------.---..------..-------------++++++++----.-------"
};
