/* XPM */
static char *_33e3850f12545add21496446d03f19czwIcMB87o8ahizzs[] = {
/* columns rows colors chars-per-pixel */
"100 100 6 1 ",
"  c None",
". c black",
"X c #73412C",
"o c #864A31",
"O c #BBAA0B",
"+ c #DAC600",
/* pixels */
"                                                                                                    ",
"                                                                                                    ",
"                                                                                                    ",
"                                                                                                    ",
"                                                                                                    ",
"                                                                                                    ",
"                                                                                                    ",
"                                                                                                    ",
"                                                                                                    ",
"                                                                                                    ",
"                                                                                                    ",
"                                                                                                    ",
"                                                                                                    ",
"                                                                                                    ",
"                                                                                                    ",
"                                                                                                    ",
"                                                                                                    ",
"                                                                                                    ",
"                                                                                                    ",
"                                                                                                    ",
"                                                                                                    ",
"                                                                                                    ",
"                                                                                                    ",
"                                                                                                    ",
"                                                                                                    ",
"                                                                                                    ",
"                                                                                                    ",
"                                                                                                    ",
"                                                                                                    ",
"                                                                                                    ",
"                                                                                                    ",
"                                                                                                    ",
"                                                                                                    ",
"                                                                                                    ",
"                                                                                                    ",
"                                                                                                    ",
"                                                                                                    ",
"                                                                                                    ",
"                                                                                                    ",
"                                                                                                    ",
"                                                                                                    ",
"                                                                                                    ",
"                                                                                                    ",
"                                                                                                    ",
"                                                                                                    ",
"                                                                                                    ",
"                                                                                                    ",
"                                 .................................    ..                            ",
"                               ....oooooooooooooooooooooooooooooo...........                        ",
"                               .X..oooooooooooooooooooooooooooooooooooooooo...                      ",
"                              .XX.ooooooooooooooooooooooooooooooooooooooooo.X..                     ",
"                             ..XX.ooooooooooooooooooooooooooooooooooooooooo.XX.                     ",
"                             .XXX.ooooooooooooooooooooooooooooooooooooooooo.XX.                     ",
"                             .XXX.ooooooooooooooooooooooooooooooooooooooooo.XX.                     ",
"                             .XXX.ooooooooooooooooOOOOooo+++++oOOOOoooooooo..XX.                    ",
"                             .XXX.ooooooooooooooooOOOOooo+++++oOOOOooooooooo.XX.                    ",
"                             .XXX.oooooooooooooooooOOooooo++ooooOOoooooooooo.XX.                    ",
"                            .XXXX.ooooooooooooooooooOOooo++oooOOOooooooooooo.XX.                    ",
"                            .XXXX.oooooooooooooooooooOOo++oooOOOoooooooooooo.X..                    ",
"                            .XXXX.oooooooooooooooooooOOO+ooOOOoooooooooooooo.X.                     ",
"                            .XXXX.ooooooooooooooooooooOOOooOOoooooooooooooo..X.                     ",
"                            .XXX.oooooooooooooooooooo++OOO+Oooooooooooooooo.XX.                     ",
"                            .XXX.ooooooooooooooooooo++ooOOOoooooooooooooooo.XX.                     ",
"                            ..XX.oooooooooooooooooo++oooooooo++oooooooooooo.XX.                     ",
"                             .XX.ooooooooooooooooo++ooooooooo++oooooooooooo.XX.                     ",
"                            ..XX..oooooooooooooooo++++++++++++ooooooooooooo.XX.                     ",
"                            ..XX.oooooooooooooooooo++++++++++ooooooooooooo..X..                     ",
"                            .XX..ooooooooooooooooooooooooooooooooooooooooo..X.                      ",
"                            .XX.ooooooooooooooooooooooooooooooooooooooooooo.X.                      ",
"                            .XX.ooooooooooooooooooooooooooooooooooooooooooo.X.                      ",
"                            .XX.ooooooooooooooooooooooooooooooooooooooooooo.X.                      ",
"                           ..XX.oooooooooooooooooooo+++oooooooooooooooooooo..                       ",
"                           .XXX.oooooooooooooooooooo+++oooooooooooooooooooo..                       ",
"                           .XXX..ooooooooooooooooooo+++ooooooooooooooooooo..                        ",
"                           .XXXX....................+++.....................                        ",
"                           .XXXX.XXXXXXXXXXXXXXXXXXX+++XXXXXXXXXXXXXXXXXXX..                        ",
"                           .XXXXXXXXXXXXXXXXXXXXXXXXXXXXXXXXXXXXXXXXXXXXXX.                         ",
"                           .XXXXXXXXXXXXXXXXXXXXXXXXXXXXXXXXXXXXXXXXXXXXX..                         ",
"                           .......XXXXXXX........XXXXXXXXXXXXXXXXXXXXXXXX.                          ",
"                                  ........       ........XXXXXXXXXXX......                          ",
"                                                         ...........                                ",
"                                                                                                    ",
"                                                                                                    ",
"                                                                                                    ",
"                                                                                                    ",
"                                                                                                    ",
"                                                                                                    ",
"                                                                                                    ",
"                                                                                                    ",
"                                                                                                    ",
"                                                                                                    ",
"                                                                                                    ",
"                                                                                                    ",
"                                                                                                    ",
"                                                                                                    ",
"                                                                                                    ",
"                                                                                                    ",
"                                                                                                    ",
"                                                                                                    ",
"                                                                                                    "
};
