/* XPM */
static char *dde2a7b175874bd893f09b27ab93a8b5t50cQZo6HmTudumc[] = {
/* columns rows colors chars-per-pixel */
"100 100 6 1 ",
"  c None",
". c black",
"X c gray40",
"o c #8a0a0a",
"O c #918888",
"+ c white",
/* pixels */
"                                                                                                    ",
"                                                                                                    ",
"                                 XXXXXXXXXXXXXXXXXXXXXXXXXXXXXXXXXXXXXXXXXXXXXXXXXXXXXXXXXXXXXXXXXX ",
"                                 XXXXXXXXXXXXXXXXXXXXXXXXXXXXXXXXXXXXXXXXXXXXXXXXXXXXXXXXXXXXXXXXXX ",
"                                 XXXXXXXXXXXXXXXXXXXXXXXXXXXXXXXXXXXXXXXXXXXXXXXXXXXXXXXXXXXXXXXXXX ",
"                                 XXXXXXXXXXXXXXXXXXXXXXXXXXXXXXXXXXXXXXXXXXXXXXXXXXXXXXXXXXXXXXXXXX ",
"                                 XXXXOOOOOOOOOOOOOOOOOOOOOOOOOOOOOOOOOOOOOOOOOOOOOOOOOOOOOOOOOOXXXX ",
"                                 XXXXOOOOOOOOOOOOOOOOOOOOOOOOOOOOOOOOOOOOOOOOOOOOOOOOOOOOOOOOOOXXXX ",
"                                 XXXXOOOooooooOOoooooOooooOOooOOooOoooooOOOOOOOOOOOOOOOOOOOOOOOXXXX ",
"                                 XXXXOOOooooooOOooOOoOooOOOOoooOooOooOooOOOOOOOOOOOOOOOOOOOOOOOXXXX ",
"                                 XXXXOOOOOooOOOOoooooOooooOOooOoooOooOooOOOOOOOOOOOOOOOOOOOOOOOXXXX ",
"                                 XXXXOOOOOooOOOOoooOOOooOOOOooOOooOooOooOOOOOOOOOOOOOOOOOOOOOOOXXXX ",
"                                 XXXXOOOOOooOOOOooOoOOooooOOooOOooOoooooOOOOOOOOOOOOOOOOOOOOOOOXXXX ",
"                                 XXXXOOOOOOOOOOOOOOOOOOOOOOOOOOOOOOOOOOOOOOOOOOOOOOOOOOOOOOOOOOXXXX ",
"                                 XXXXOOOOOOOOOOOOOOOOOOOOOOOOOOOOOOOOOOOOOOOOOOOOOOOOOOOOOOOOOOXXXX ",
"                                 XXXXOOOOooOooOOooOOOOOOOOOOOOOOOOOOOOOOOOOOOOOOOOOOOOOOOOOOOOOXXXX ",
"                                 XXXXOOOOooOoooOooOOOOOOOOOOOOOOOOOOOOOOOOOOOOOOOOOOOOOOOOOOOOOXXXX ",
"                                 XXXXOOOOooOooOoooOOOOOOOOOOOOOOOOOOOOOOOOOOOOOOOOOOOOOOOOOOOOOXXXX ",
"                                 XXXXOOOOooOooOOooOOOOOOOOOOOOOOOOOOOOOOOOOOOOOOOOOOOOOOOOOOOOOXXXX ",
"                                 XXXXOOOOooOooOOooOOOOOOOOOOOOOOOOOOOOOOOOOOOOOOOOOOOOOOOOOOOOOXXXX ",
"                                 XXXXOOOOOOOOOOOOOOOOOOOOOOOOOOOOOOOOOOOOOOOOOOOOOOOOOOOOOOOOOOXXXX ",
"                                 XXXXOOOOOOOOOOOOOOOOOOOOOOOOOOOOOOOOOOOOOOOOOOOOOOOOOOOOOOOOOOXXXX ",
"                                 XXXXOOOOooooooOooOOooooooOoooooOooooooOoooOOoooooOOOOOOOOOOOOOXXXX ",
"                                 XXXXOOOOooOOOoOooOOooooooOooOooOooOOooOooOoOooOooOOOOOOOOOOOOOXXXX ",
"                                 XXXXOOOOooooooOooOOOOooOOOooOooOooooooOooOoOooOooOOOOOOOOOOOOOXXXX ",
"                                 XXXXOOOOoooOOOOooOOOOooOOOoooooOoooOOOOooOoOooOooOOOOOOOOOOOOOXXXX ",
"                                 XXXXOOOOooOoOOOooOOOOooOOOooOooOooOoOOOoooOOoooooOOOOOOOOOOOOOXXXX ",
"                                 XXXXOOOOOOOOOOOOOOOOOOOOOOOOOOOOOOOOOOOOOOOOOOOOOOOOOOOOOOOOOOXXXX ",
"                                 XXXXOOOOOOOOOOOOOOOOOOOOOOOOOOOOOOOOOOOOOOOOOOOOOOOOOO...OOOOOXXXX ",
"                                 XXXXOOOOOOooOOOOooOOooOOooOooOOoooooOOOOOOOOOOOOOOOO..+++..OOOXXXX ",
"                                 XXXXOOOOOOooOOOOooOOooOOooOooOOoooooOOOOOOOOOOOOOOOO.++.++.OOOXXXX ",
"                                 XXXXOOOOooooooOOOOOOOOOOooOooOOOOOOoOOOOOOOOOOOOOOO.+++.+++.OOXXXX ",
"                                 XXXXOOOOooooooOOOOOOOOOOoooooOOoooooOOOOOOOOOOOOOOO.+++.+++.OOXXXX ",
"                                 XXXXOOOOOOooOOOOOOOOOOOOoooooOOoooooOOOOOOOOOOOOOOO.+..++++.OOXXXX ",
"                                 XXXXOOOOOOooOOOOOOOOOOOOOOOooOOoOOOOOOOOOOOOOOOOOOOO.+++++.OOOXXXX ",
"                                 XXXXOOOOOOOOOOOOOOOOOOOOOOOooOOoooooOOOOOOOOOOOOOOOO..+++..OOOXXXX ",
"                                 XXXXOOOOOOOOOOOOOOOOOOOOOOOooOOoooooOOOOOOOOOOOOOOOOOO...OOOOOXXXX ",
"                                 XXXXOOOOOOOOOOOOOOOOOOOOOOOOOOOOOOOOOOOOOOOOOOOOOOOOOOOOOOOOOOXXXX ",
"                                 XXXXXXXXXXXXXXXXXXXXXXXXXXXXXXXXXXXXXXXXXXXXXXXXXXXXXXXXXXXXXXXXXX ",
"                                 XXXXXXXXXXXXXXXXXXXXXXXXXXXXXXXXXXXXXXXXXXXXXXXXXXXXXXXXXXXXXXXXXX ",
"                                 XXXXXXXXXXXXXXXXXXXXXXXXXXXXXXXXXXXXXXXXXXXXXXXXXXXXXXXXXXXXXXXXXX ",
"                                 XXXXXXXXXXXXXXXXXXXXXXXXXXXXXXXXXXXXXXXXXXXXXXXXXXXXXXXXXXXXXXXXXX ",
"                                                                                          XXXXXX    ",
"                                                                                          XXXXXX    ",
"                                                                                          XXXXXX    ",
"                                                                                          XXXXXX    ",
"                                                                                          XXXXXX    ",
"                                                                                          XXXXXX    ",
"                                                                                          XXXXXX    ",
"                                                                                          XXXXXX    ",
"                                                                                          XXXXXX    ",
"                                                                                          XXXXXX    ",
"                                                                                          XXXXXX    ",
"                                                                                          XXXXXX    ",
"                                                                                          XXXXXX    ",
"                                                                                          XXXXXX    ",
"                                                                                          XXXXXX    ",
"                                                                                          XXXXXX    ",
"                                                                                          XXXXXX    ",
"                                                                                          XXXXXX    ",
"                                                                                          XXXXXX    ",
"                                                                                          XXXXXX    ",
"                                                                                          XXXXXX    ",
"                                                                                          XXXXXX    ",
"                                                                                          XXXXXX    ",
"                                                                                          XXXXXX    ",
"                                                                                          XXXXXX    ",
"                                                                                          XXXXXX    ",
"                                                                                          XXXXXX    ",
"                                                                                          XXXXXX    ",
"                                                                                          XXXXXX    ",
"                                                                                          XXXXXX    ",
"                                                                                          XXXXXX    ",
"                                                                                          XXXXXX    ",
"                                                                                          XXXXXX    ",
"                                                                                          XXXXXX    ",
"                                                                                          XXXXXX    ",
"                                                                                          XXXXXX    ",
"                                                                                          XXXXXX    ",
"                                                                                          XXXXXX    ",
"                                                                                          XXXXXX    ",
"                                                                                          XXXXXX    ",
"                                                                                          XXXXXX    ",
"                                                                                          XXXXXX    ",
"                                                                                          XXXXXX    ",
"                                                                                          XXXXXX    ",
"                                                                                          XXXXXX    ",
"                                                                                          XXXXXX    ",
"                                                                                          XXXXXX    ",
"                                                                                          XXXXXX    ",
"                                                                                          XXXXXX    ",
"                                                                                          XXXXXX    ",
"XXXXXXXXXXXXXXXXXXXXXXXXXXXXXXXXXXXXXXXXXXXXXXXXXXXXXXXXXXXXXXXXXXXXXXXXXXXXXXXXXXXXXXXXXXXXXXXXXXXX",
"XXXXXXXXXXXXXXXXXXXXXXXXXXXXXXXXXXXXXXXXXXXXXXXXXXXXXXXXXXXXXXXXXXXXXXXXXXXXXXXXXXXXXXXXXXXXXXXXXXXX",
"XXXXXXXXXXXXXXXXXXXXXXXXXXXXXXXXXXXXXXXXXXXXXXXXXXXXXXXXXXXXXXXXXXXXXXXXXXXXXXXXXXXXXXXXXXXXXXXXXXXX",
"XXXXXXXXXXXXXXXXXXXXXXXXXXXXXXXXXXXXXXXXXXXXXXXXXXXXXXXXXXXXXXXXXXXXXXXXXXXXXXXXXXXXXXXXXXXXXXXXXXXX",
"XXXXXXXXXXXXXXXXXXXXXXXXXXXXXXXXXXXXXXXXXXXXXXXXXXXXXXXXXXXXXXXXXXXXXXXXXXXXXXXXXXXXXXXXXXXXXXXXXXXX",
"XXXXXXXXXXXXXXXXXXXXXXXXXXXXXXXXXXXXXXXXXXXXXXXXXXXXXXXXXXXXXXXXXXXXXXXXXXXXXXXXXXXXXXXXXXXXXXXXXXXX",
"XXXXXXXXXXXXXXXXXXXXXXXXXXXXXXXXXXXXXXXXXXXXXXXXXXXXXXXXXXXXXXXXXXXXXXXXXXXXXXXXXXXXXXXXXXXXXXXXXXXX",
"XXXXXXXXXXXXXXXXXXXXXXXXXXXXXXXXXXXXXXXXXXXXXXXXXXXXXXXXXXXXXXXXXXXXXXXXXXXXXXXXXXXXXXXXXXXXXXXXXXXX"
};
