/* XPM */
static char *e0c3026d67484355d13df9fc47dc77bcdkA5J3wvOFL0TAUk[] = {
/* columns rows colors chars-per-pixel */
"100 100 8 1 ",
"  c None",
". c black",
"X c gray40",
"o c #E00F0F",
"O c #29E00F",
"+ c #D4FF00",
"@ c #918888",
"# c white",
/* pixels */
"                                                                                                    ",
"                                                                                                    ",
"                                 XXXXXXXXXXXXXXXXXXXXXXXXXXXXXXXXXXXXXXXXXXXXXXXXXXXXXXXXXXXXXXXXXX ",
"                                 XXXXXXXXXXXXXXXXXXXXXXXXXXXXXXXXXXXXXXXXXXXXXXXXXXXXXXXXXXXXXXXXXX ",
"                                 XXXXXXXXXXXXXXXXXXXXXXXXXXXXXXXXXXXXXXXXXXXXXXXXXXXXXXXXXXXXXXXXXX ",
"                                 XXXXXXXXXXXXXXXXXXXXXXXXXXXXXXXXXXXXXXXXXXXXXXXXXXXXXXXXXXXXXXXXXX ",
"                                 XXXX@@@@@@@@@@@@@@@@@@@@@@@@@@@@@@@@@@@@@@@@@@@@@@@@@@@@@@@@@@XXXX ",
"                                 XXXX@@@@@@@@@@@@@@@@@@@@@@@@@@@@@@@@@@@@@@@@@@@@@@@@@@@@@@@@@@XXXX ",
"                                 XXXX@@@OOOOOO@@OOOOO@OOOO@@OO@@OO@OOOOO@@@@@@@@@@@@@@@@@@@@@@@XXXX ",
"                                 XXXX@@@OOOOOO@@OO@@O@OO@@@@OOO@OO@OO@OO@@@@@@@@@@@@@@@@@@@@@@@XXXX ",
"                                 XXXX@@@@@OO@@@@OOOOO@OOOO@@OO@OOO@OO@OO@@@@@@@@@@@@@@@@@@@@@@@XXXX ",
"                                 XXXX@@@@@OO@@@@OOO@@@OO@@@@OO@@OO@OO@OO@@@@@@@@@@@@@@@@@@@@@@@XXXX ",
"                                 XXXX@@@@@OO@@@@OO@O@@OOOO@@OO@@OO@OOOOO@@@@@@@@@@@@@@@@@@@@@@@XXXX ",
"                                 XXXX@@@@@@@@@@@@@@@@@@@@@@@@@@@@@@@@@@@@@@@@@@@@@@@@@@@@@@@@@@XXXX ",
"                                 XXXX@@@@@@@@@@@@@@@@@@@@@@@@@@@@@@@@@@@@@@@@@@@@@@@@@@@@@@@@@@XXXX ",
"                                 XXXX@@@@OO@OO@@OO@@@@@@@@@@@@@@@@@@@@@@@@@@@@@@@@@@@@@@@@@@@@@XXXX ",
"                                 XXXX@@@@OO@OOO@OO@@@@@@@@@@@@@@@@@@@@@@@@@@@@@@@@@@@@@@@@@@@@@XXXX ",
"                                 XXXX@@@@OO@OO@OOO@@@@@@@@@@@@@@@@@@@@@@@@@@@@@@@@@@@@@@@@@@@@@XXXX ",
"                                 XXXX@@@@OO@OO@@OO@@@@@@@@@@@@@@@@@@@@@@@@@@@@@@@@@@@@@@@@@@@@@XXXX ",
"                                 XXXX@@@@OO@OO@@OO@@@@@@@@@@@@@@@@@@@@@@@@@@@@@@@@@@@@@@@@@@@@@XXXX ",
"                                 XXXX@@@@@@@@@@@@@@@@@@@@@@@@@@@@@@@@@@@@@@@@@@@@@@@@@@@@@@@@@@XXXX ",
"                                 XXXX@@@@@@@@@@@@@@@@@@@@@@@@@@@@@@@@@@@@@@@@@@@@@@@@@@@@@@@@@@XXXX ",
"                                 XXXX@@@OOOOOO@OOOOO@OOOOO@OOOOOO@@OOOO@OO@@OO@OOOO@OOOOO@@@@@@XXXX ",
"                                 XXXX@@@OO@@@O@OO@OO@OO@@O@OOOOOO@@OO@@@OOO@OO@OOOO@OOOOO@@@@@@XXXX ",
"                                 XXXX@@@OOOOOO@OO@OO@OOOOO@@@OO@@@@OOOO@OO@OOO@@@O@@OO@OO@@@@@@XXXX ",
"                                 XXXX@@@OO@@@@@OOOOO@OOO@@@@@OO@@@@OOOO@OO@OOO@@O@@@OOOOO@@@@@@XXXX ",
"                                 XXXX@@@OO@@@@@OO@OO@OO@O@@@@OO@@@@OO@@@OO@@OO@OOOO@OO@OO@@@@@@XXXX ",
"                                 XXXX@@@OO@@@@@OO@OO@OO@@O@@@OO@@@@OOOO@OO@@OO@OOOO@OO@OO@@@@@@XXXX ",
"                                 XXXX@@@@@@@@@@@@@@@@@@@@@@@@@@@@@@@@@@@@@@@@@@@@@@@@@@...@@@@@XXXX ",
"                                 XXXX@@@@@@@@@@@@@@@@@@@@@@@@@@@@@@@@@@@@@@@@@@@@@@@@..###..@@@XXXX ",
"                                 XXXX@@@@@@@@@@@@@@@@@@@@@@@@@@@@@@@@@@@@@@@@@@@@@@@@.##.##.@@@XXXX ",
"                                 XXXX@@@OO@@O@@@@@@@@@@@@@@@@@@@@@@@@@@@@@@@@@@@@@@@.###.###.@@XXXX ",
"                                 XXXX@@@OO@@@O@@@@@@@@@@@@@@@@@@@@@@@@@@@@@@@@@@@@@@.###.###.@@XXXX ",
"                                 XXXX@@@@@@@@O@@@@@@@@@@@@@@@@@@@@@@@@@@@@@@@@@@@@@@.#..####.@@XXXX ",
"                                 XXXX@@@OO@@@O@@@@@@@@@@@@@@@@@@@@@@@@@@@@@@@@@@@@@@@.#####.@@@XXXX ",
"                                 XXXX@@@OO@@O@@@@@@@@@@@@@@@@@@@@@@@@@@@@@@@@@@@@@@@@..###..@@@XXXX ",
"                                 XXXX@@@@@@@@@@@@@@@@@@@@@@@@@@@@@@@@@@@@@@@@@@@@@@@@@@...@@@@@XXXX ",
"                                 XXXX@@@@@@@@@@@@@@@@@@@@@@@@@@@@@@@@@@@@@@@@@@@@@@@@@@@@@@@@@@XXXX ",
"                                 XXXXXXXXXXXXXXXXXXXXXXXXXXXXXXXXXXXXXXXXXXXXXXXXXXXXXXXXXXXXXXXXXX ",
"                                 XXXXXXXXXXXXXXXXXXXXXXXXXXXXXXXXXXXXXXXXXXXXXXXXXXXXXXXXXXXXXXXXXX ",
"                                 XXXXXXXXXXXXXXXXXXXXXXXXXXXXXXXXXXXXXXXXXXXXXXXXXXXXXXXXXXXXXXXXXX ",
"                                 XXXXXXXXXXXXXXXXXXXXXXXXXXXXXXXXXXXXXXXXXXXXXXXXXXXXXXXXXXXXXXXXXX ",
"                                                                                          XXXXXX    ",
"                                                                                          XXXXXX    ",
"                                                                                          XXXXXX    ",
"                                                                                          XXXXXX    ",
"                                                                                          XXXXXX    ",
"...........       .....                                                                   XXXXXX    ",
"oooooooooo.........oooo...............                                                    XXXXXX    ",
"ooooooooooooooooooooooooooooooooooooo...                                                  XXXXXX    ",
"ooooooooooooooooooooooooooooooooooooooo..                                                 XXXXXX    ",
"oooooooooooooooooooooooooooo......ooooooo..                                               XXXXXX    ",
"oooooooooooooooooooooooooooo......oooooooo...                                             XXXXXX    ",
"oooooooooooooooooooooooooooo..........oooooo...                                           XXXXXX    ",
"oooooooooooooooooooooooooooo...........ooooooo...                                         XXXXXX    ",
"oooooooooooooooooooooooooooo.............ooooooo...                                       XXXXXX    ",
"oooooooooooooooooooooooooooo..............oooooooo..                                      XXXXXX    ",
"o++o++++++o+++++o++ooo+++++o................ooooooo...                                    XXXXXX    ",
"o++o++++++o+++++o++ooo+++++o..................oooooooo....                                XXXXXX    ",
"o++ooo++ooo++o++o++ooo++o++o....................ooooooooo...                              XXXXXX    ",
"o++ooo++ooo++o++o++ooo++o++o......................ooooooooo...                            XXXXXX    ",
"o++ooo++ooo+++++o++ooo++o++o.......................oooooooooo..                           XXXXXX    ",
"o++ooo++ooo+++++o++ooo++o++o........................oooooooooo...                         XXXXXX    ",
"o++ooo++ooo++o++o++++o++o++o..........................oooooooooo...                       XXXXXX    ",
"o++ooo++ooo++o++o++++o+++++o...........................ooooooooooo...                     XXXXXX    ",
"oooooooooooooooooooooooooooo..............................oooooooooo..                    XXXXXX    ",
"o++++++++++++++++++++++++++o...............................ooooooooooo..                  XXXXXX    ",
"o++++++++++++++++++++++++++oo................................oooooooooo..                 XXXXXX    ",
"oooooooooooooooooooooooooooooo.................................ooooooooo.                 XXXXXX    ",
"ooooooooooooooooooooooooooooooo...............................oooooooooo..                XXXXXX    ",
"ooooooooooooooooooooooooooooooooooooooooooooooooooooooooooooooooooooooooo..               XXXXXX    ",
"oooooooooooooooooooooooooooooooooooooooooooooooooooooooooooooooooooooooooo.               XXXXXX    ",
"oooooooooooooooooooooooooooooooooooooooooooooooooooooooooooooooooooooooooo..              XXXXXX    ",
"ooooooooooooooooooooooooooooooooooooooooooooooooooooooooooooooooooooooooooo.              XXXXXX    ",
"ooooooooooooooooooooooooooooooooooooooooooooooooooooooooooooooooooooooooooo..             XXXXXX    ",
"oooooooooooooooooooooooooooooooooooooooooooooooooooooooooooooooooooooooooooo.             XXXXXX    ",
"ooooooooooooooooooooooooooooooooooooooooooooooooooooooooooooooooooooooooooooo.            XXXXXX    ",
"ooooooooooooooooooooooooooooooooooooooooooooooooooooooooooooooooooooooooooooo.            XXXXXX    ",
"ooooooooooooooooooooooooooooooooooooooooooooooooooooooooooooooooooooooooooooo.            XXXXXX    ",
"ooooooooooooooooooooooooooooooooooooooooooooooooooooooooooooooooooooooooooooo..           XXXXXX    ",
"oooooooooooooooooooooooooooooooooooooooooooooooooooooooooooooooooooooooooooooo.           XXXXXX    ",
"++++++++++++++++++++++++++++++++++++++++++++++++++++++++++++++++++++++++++++++.           XXXXXX    ",
"++++++++++++++++++++++++++++++++++++++++++++++++++++++++++++++++++++++++++++++.           XXXXXX    ",
"oooooooooooooooooooooooooooooooooooooooooooooooooooooooooooooooooooooooooooooo.           XXXXXX    ",
"oooooooooooooooooooooooooooooooooooooooooooooooooooooooooooooooooooooooooooooo.           XXXXXX    ",
"oooooooooooooooooooooooooooooooooooooooooooooooooooooooooooooooooooooooooooooo.           XXXXXX    ",
"oooooooooooooooooooooooooooooooooooooooooooooooooooooooooooooooooooooooooooooo.           XXXXXX    ",
"ooooooooooooooooooooooooooooooooooooooooooooooooooooooooooooooooooooooooooooo..           XXXXXX    ",
"ooooooooooooooooooooooooooooooooooooooooooooooooooooooooooooooooooooooooooooo. .          XXXXXX    ",
"ooooooooooooooooooooooooooooooooooooooooooooooooooooooooooooooooooooooooooooo...          XXXXXX    ",
"ooooooooooooooooooooooooooooooooooooooooooooooooooooooooooooooooooooooooooooo...          XXXXXX    ",
".....ooo..oooooooooooooooooooooooooooooooooooooooooooooooooooooooooooooooooo....          XXXXXX    ",
"XXXX...........................................................................XXXXXXXXXXXXXXXXXXXXX",
"XXXXXXXXXXXXXXXXXXXXXXXXXXXXXXXXXXXXXXXXXXXXXXXXXXXXXXXXXXXXXXXXXXXXXXXXXXXXXXXXXXXXXXXXXXXXXXXXXXXX",
"XXXXXXXXXXXXXXXXXXXXXXXXXXXXXXXXXXXXXXXXXXXXXXXXXXXXXXXXXXXXXXXXXXXXXXXXXXXXXXXXXXXXXXXXXXXXXXXXXXXX",
"XXXXXXXXXXXXXXXXXXXXXXXXXXXXXXXXXXXXXXXXXXXXXXXXXXXXXXXXXXXXXXXXXXXXXXXXXXXXXXXXXXXXXXXXXXXXXXXXXXXX",
"XXXXXXXXXXXXXXXXXXXXXXXXXXXXXXXXXXXXXXXXXXXXXXXXXXXXXXXXXXXXXXXXXXXXXXXXXXXXXXXXXXXXXXXXXXXXXXXXXXXX",
"XXXXXXXXXXXXXXXXXXXXXXXXXXXXXXXXXXXXXXXXXXXXXXXXXXXXXXXXXXXXXXXXXXXXXXXXXXXXXXXXXXXXXXXXXXXXXXXXXXXX",
"XXXXXXXXXXXXXXXXXXXXXXXXXXXXXXXXXXXXXXXXXXXXXXXXXXXXXXXXXXXXXXXXXXXXXXXXXXXXXXXXXXXXXXXXXXXXXXXXXXXX",
"XXXXXXXXXXXXXXXXXXXXXXXXXXXXXXXXXXXXXXXXXXXXXXXXXXXXXXXXXXXXXXXXXXXXXXXXXXXXXXXXXXXXXXXXXXXXXXXXXXXX"
};
