/* XPM */
static char *_f27af8c7ca94f9ae3478a0d380b1a80HWejhDZMBQYxyh6v[] = {
/* columns rows colors chars-per-pixel */
"100 100 8 1 ",
"  c None",
". c black",
"X c #6C341D",
"o c #DC0D0D",
"O c #DAC600",
"+ c #F39849",
"@ c #124FBC",
"# c white",
/* pixels */
"                                                                                                    ",
"                                                                                                    ",
"                                                                                                    ",
"                                                                                                    ",
"                                                                                                    ",
"                                                                                                    ",
"                                                                                                    ",
"                                                                                                    ",
"                                                                                                    ",
"                                                                                                    ",
"                                  ..   ..                                                           ",
"                                  ........... .                                                     ",
"                                  ...............                                                   ",
"                                 ......+.........                                                   ",
"                                 ..+++++++++.....                                                   ",
"                                 ..++++++++++++..                                                   ",
"                                ...++###++++###+..                                                  ",
"                                ..+++##.++++.##+..                                                  ",
"                                 .++++++++++++++..                                                  ",
"                                 .+++++++++++++++.                                                  ",
"                                 +++++++++++++++++                                                  ",
"                                 ++++++++++++++++                                                   ",
"                                 ++++++++++++++++                                                   ",
"                                 ++++++++++++++++                                                   ",
"                                  +++++ooooo++++                                                    ",
"                             ####++++++++++oo+++                                                    ",
"                    ++++++++ ######++++++++++++    +++++                                            ",
"                    ++++++++#########++++++++####+++++++++                                          ",
"                  ++++++++++#####################++++++++++                                         ",
"                  ++++++++++#####################++++++++++                                         ",
"                 +++++++++++#####################++++++++++                                         ",
"                 ++++++++++###oooooooooooooooooo##++++++++++                                        ",
"                 ++++++++++###oooooooooooooooooo##++++++++++                                        ",
"                 ++++++++++###oo###oo#oo#oo####o##++++++++++                                        ",
"                 +++++++++####oo#oooo#oo#oo#oo#o#+++++++++++                                        ",
"                ++++++++++####oo###oo#oo#oo####o#++++++++++++                                       ",
"                ++++++++++####oooo#oo#oo#oo#oooo#++++++++++++                                       ",
"                +++++++++#####oo###oo####oo#oooo#++++++++++++                                       ",
"                +++++++++#####oooooooooooooooooo##+++++++++++                                       ",
"                +++++++++#####oooooooooooooooooo##+++++++++++                                       ",
"                +++++++++#########################+++++++++++                                       ",
"                +++++++++#########################+++++++++++                                       ",
"                +++++++++#########################+++++++++++                                       ",
"                +++++++++#########################+++++++++++                                       ",
"                ++++++++++########################+++++++++++                                       ",
"                ++++++++++########################++++++++++                                        ",
"                ++++++++++########################++++++++++                                        ",
"                ++++++++++########################+++++++++                                         ",
"                 +++++++++########################+++++++++                                         ",
"                  ++++++++########################+++++++++                                         ",
"                  ++++++++####################### +++++++++                                         ",
"                 +++++++++####################### +++++++++                                         ",
"               +++++++++++####################### +++++++++                                         ",
"               +++++++++++XXX..#################  +++++++++++                                       ",
"                 +++++++++XXXXX.....############  +++++++++++                                       ",
"                  ++++++++@XXXXXX.OOO..########   ++++++++                                          ",
"                  ++++++++@@@XXXOOX..O....#####    +++++++                                          ",
"                  +++++++@@@@@@XOXXOXXXX....###     ++++++                                          ",
"                     ++++@@@@@@@@OXXOXXXXXXXXX                                                      ",
"                        @@@@@@@@@O@@@OXXXXXXXX                                                      ",
"                        @@@@@@@@@@OOO@@@@@@XXX                                                      ",
"                        @@@@@@@@@@@@@@@@@@@@@@                                                      ",
"                        @@@@@@@@@@@@@@@@@@@@@@                                                      ",
"                        @@@@@@@@@@@@@@@@@@@@@@@                                                     ",
"                        @@@@@@@@@@@@@@@@@@@@@@@                                                     ",
"                        @@@@@@@@@@@@@@@@@@@@@@@                                                     ",
"                        @@@@@@@@@@@@@@@@@@@@@@@                                                     ",
"                        @@@@@@@@@@@@@@@@@@@@@@@                                                     ",
"                        @@@@@@@@@@@@@@@@@@@@@@@                                                     ",
"                        @@@@@@@@@@@@@@@@@@@@@@@                                                     ",
"                        @@@@@@@@@@@@@@@@@@@@@@@                                                     ",
"                        @@@@@@@@@@@@@ @@@@@@@@@                                                     ",
"                        @@@@@@@@@@@@@ @@@@@@@@@@                                                    ",
"                        @@@@@@@@@@@@@ @@@@@@@@@@                                                    ",
"                        @@@@@@@@@@@@@ @@@@@@@@@@                                                    ",
"                        @@@@@@@@@@@@@ @@@@@@@@@@                                                    ",
"                        @@@@@@@@@@@@@ @@@@@@@@@@                                                    ",
"                        @@@@@@@@@@@@@ @@@@@@@@@@                                                    ",
"                        @@@@@@@@@@@@@ @@@@@@@@@@@                                                   ",
"                        @@@@@@@@@@@@@ @@@@@@@@@@@                                                   ",
"                         @@@@@@@@@@@@ @@@@@@@@@@@                                                   ",
"                         @@@@@@@@@@@@ @@@@@@@@@@@                                                   ",
"                         @@@@@@@@@@@@ @@@@@@@@@@@                                                   ",
"                        @@@@@@@@@@@@@ @@@@@@@@@@@                                                   ",
"                         @@@@@@@@@@@@ @@@@@@@@@@@                                                   ",
"                        @@@@@@@@@@@@@ @@@@@@@@@@@                                                   ",
"                        @@@@@@@@@@@@  @@@@@@@@@@@                                                   ",
"                        @@@@@@@@@@@@ @@@@@@@@@@@@                                                   ",
"                        @@@@@@@@@@@@ @@@@@@@@@@@@                                                   ",
"                         @@@@@@@@@@@ @@@@@@@@@@@@                                                   ",
"                         @@@@@@@@@@@ @@@@@@@@@@@@                                                   ",
"                         @@@@@@@@@@  @@@@@@@@@@@@                                                   ",
"                         @@@@@@@@@@  @@@@@@@@@@@@                                                   ",
"                         @@@@@@@@@@ @@@@@@@@@@@@@                                                   ",
"                         @@@@@@@@@@ @@@@@@@@@@@@@                                                   ",
"                         @@@@@@@@@@ @@@@@@@@@@@@@                                                   ",
"                         @@@@@@@@@@  @@@@@@@@@@@@                                                   ",
"                         @@@ooooooo   @@oooooo@@@                                                   ",
"                           ooooooooo   oooooooo                                                     ",
"                           ooooooooo   oooooooo                                                     "
};
