/* XPM */
static char *_8730b57213245d7cf384fb3be42dcafHgopYUvFIK6OmrGi[] = {
/* columns rows colors chars-per-pixel */
"100 100 4 1 ",
"  c None",
". c black",
"X c #161313",
"o c #242020",
/* pixels */
"                                                                                                    ",
"                                                                                                    ",
"                                                                                                    ",
"                                                                                                    ",
"                                                                                                    ",
"                                                                                                    ",
"                                                                                                    ",
"                                                                                                    ",
"                                                                                                    ",
"                                                                                                    ",
"                                                                                                    ",
"                                                                                                    ",
"                                                                                                    ",
"                                                                                                    ",
"                                                                                                    ",
"                                                                                                    ",
"                                                                                                    ",
"                                                                                                    ",
"                                                                                                    ",
"                                                                                                    ",
"                                                                                                    ",
"                                                                                                    ",
"                                                                                                    ",
"                                                                                                    ",
"                                                                                                    ",
"                                                                                                    ",
"                                                                                                    ",
"                                                                                                    ",
"                                                                                                    ",
"                                                                                                    ",
"                                                                                                    ",
"                                                                                                    ",
"                                                                                                    ",
"                                                                                                    ",
"                                                                                                    ",
"                                                                                                    ",
"                                                                                                    ",
"                                                                                                    ",
"                                                                                                    ",
"                                                                                                    ",
"                                                                                                    ",
"                                                                                                    ",
"                                                                                                    ",
"                                                                                                    ",
"                                                                                                    ",
"                                                                                                    ",
"                                                                                                    ",
"                                                                                                    ",
"                                                                                                    ",
"                                                                                                    ",
"                                                                                                    ",
"                                                                                                    ",
"                                                                                                    ",
"                                                                                                    ",
"                                                                                                    ",
"                                                                                                    ",
"                                                                                                    ",
"                                       oooooooooooooooooooooo                                       ",
"                                oooooooooooooooooooooooooooooooooooo                                ",
"                            oooooooooooooooooooooooooooooooooooooooooooo                            ",
"                        oooooooooooooooooooooooooooooooooooooooooooooooooooo                        ",
"                     oooooooooooooooooooooooooooooooooooooooooooooooooooooooooo                     ",
"                   oooooooooooooooooooooooooooooooooooooooooooooooooooooooooooooo                   ",
"                oooooooooooooooooooooooooooooooooooooooooooooooooooooooooooooooooooo                ",
"              oooooooooooooooooooooooooooooooooooooooooooooooooooooooooooooooooooooooo              ",
"             oooooooooooooooooooooooooooooooooooooooooooooooooooooooooooooooooooooooooo             ",
"           ooooooooooooooooooooooooooooooXXXXXXXXXXXXXXXXXXXXoooooooooooooooooooooooooooo           ",
"          oooooooooooooooooooooooooXXXXXXXXXXXXXXXXXXXXXXXXXXXXXXXXooooooooooooooooooooooo          ",
"         ooooooooooooooooooooooXXXXXXXXXXXXXXXXXXXXXXXXXXXXXXXXXXXXXXXXoooooooooooooooooooo         ",
"        ooooooooooooooooooooXXXXXXXXXXXXXXXXXXXXXXXXXXXXXXXXXXXXXXXXXXXXXXoooooooooooooooooo        ",
"       ooooooooooooooooooXXXXXXXXXXXXXXXXXXXXXXXXXXXXXXXXXXXXXXXXXXXXXXXXXXXXoooooooooooooooo       ",
"       oooooooooooooooooXXXXXXXXXXXXXXXXXXXXXXXXXXXXXXXXXXXXXXXXXXXXXXXXXXXXXXooooooooooooooo       ",
"      ooooooooooooooooXXXXXXXXXXXX..............X......................XXXXXXXXXoooooooooooooo      ",
"      ooooooooooooooooXXXXXXXXXX.........................................XXXXXXXoooooooooooooo      ",
"     ooooooooooooooooXXXXXXXXXX...........................................XXXXXXXoooooooooooooo     ",
"     ooooooooooooooooXXXXXXXXXX...........................................XXXXXXXoooooooooooooo     ",
"     ooooooooooooooooXXXXXXXXXXX.........................................XXXXXXXXoooooooooooooo     ",
"     ooooooooooooooooXXXXXXXXXXXXX.....................................XXXXXXXXXXoooooooooooooo     ",
"     oooooooooooooooooXXXXXXXXXXXXXXXXXXX.......................XXXXXXXXXXXXXXXXooooooooooooooo     ",
"     oooooooooooooooooXXXXXXXXXXXXXXXXXXXXXXXXXXXXXXXXXXXXXXXXXXXXXXXXXXXXXXXXXXooooooooooooooo     ",
"      ooooooooooooooooooXXXXXXXXXXXXXXXXXXXXXXXXXXXXXXXXXXXXXXXXXXXXXXXXXXXXXXoooooooooooooooo      ",
"      oooooooooooooooooooXXXXXXXXXXXXXXXXXXXXXXXXXXXXXXXXXXXXXXXXXXXXXXXXXXXXooooooooooooooooo      ",
"       oooooooooooooooooooooXXXXXXXXXXXXXXXXXXXXXXXXXXXXXXXXXXXXXXXXXXXXXXooooooooooooooooooo       ",
"       ooooooooooooooooooooooooXXXXXXXXXXXXXXXXXXXXXXXXXXXXXXXXXXXXXXXXoooooooooooooooooooooo       ",
"        oooooooooooooooooooooooooooXXXXXXXXXXXXXXXXXXXXXXXXXXXXXXXXooooooooooooooooooooooooo        ",
"         ooooooooooooooooooooooooooooooooXXXXXXXXXXXXXXXXXXXXoooooooooooooooooooooooooooooo         ",
"          oooooooooooooooooooooooooooooooooooooooooooooooooooooooooooooooooooooooooooooooo          ",
"           oooooooooooooooooooooooooooooooooooooooooooooooooooooooooooooooooooooooooooooo           ",
"             oooooooooooooooooooooooooooooooooooooooooooooooooooooooooooooooooooooooooo             ",
"              oooooooooooooooooooooooooooooooooooooooooooooooooooooooooooooooooooooooo              ",
"                oooooooooooooooooooooooooooooooooooooooooooooooooooooooooooooooooooo                ",
"                   oooooooooooooooooooooooooooooooooooooooooooooooooooooooooooooo                   ",
"                     oooooooooooooooooooooooooooooooooooooooooooooooooooooooooo                     ",
"                        oooooooooooooooooooooooooooooooooooooooooooooooooooo                        ",
"                            oooooooooooooooooooooooooooooooooooooooooooo                            ",
"                                oooooooooooooooooooooooooooooooooooo                                ",
"                                       oooooooooooooooooooooo                                       ",
"                                                                                                    ",
"                                                                                                    ",
"                                                                                                    "
};
