<?xml version="1.0" encoding="UTF-8"?>
<!DOCTYPE svg PUBLIC "-//W3C//DTD SVG 1.1//EN" "http://www.w3.org/Graphics/SVG/1.1/DTD/svg11.dtd">
<svg xmlns="http://www.w3.org/2000/svg" version="1.1" width="512px" height="512px" style="shape-rendering:geometricPrecision; text-rendering:geometricPrecision; image-rendering:optimizeQuality; fill-rule:evenodd; clip-rule:evenodd" xmlns:xlink="http://www.w3.org/1999/xlink">
<g><path style="opacity:0.932" fill="#d6d4d1" d="M 4.5,86.5 C 171.833,86.5 339.167,86.5 506.5,86.5C 506.5,199.167 506.5,311.833 506.5,424.5C 339.167,424.5 171.833,424.5 4.5,424.5C 4.5,311.833 4.5,199.167 4.5,86.5 Z"/></g>
<g><path style="opacity:1" fill="#63b086" d="M 173.5,91.5 C 118.833,91.5 64.1667,91.5 9.5,91.5C 9.5,200.833 9.5,310.167 9.5,419.5C 64.1667,419.5 118.833,419.5 173.5,419.5C 173.5,419.833 173.5,420.167 173.5,420.5C 118.5,420.5 63.5,420.5 8.5,420.5C 8.5,310.5 8.5,200.5 8.5,90.5C 63.6692,90.1677 118.669,90.501 173.5,91.5 Z"/></g>
<g><path style="opacity:1" fill="#009245" d="M 173.5,91.5 C 173.5,200.833 173.5,310.167 173.5,419.5C 118.833,419.5 64.1667,419.5 9.5,419.5C 9.5,310.167 9.5,200.833 9.5,91.5C 64.1667,91.5 118.833,91.5 173.5,91.5 Z"/></g>
<g><path style="opacity:1" fill="#fefefe" d="M 173.5,91.5 C 228.167,91.5 282.833,91.5 337.5,91.5C 337.5,201.167 337.5,310.833 337.5,420.5C 282.833,420.5 228.167,420.5 173.5,420.5C 173.5,420.167 173.5,419.833 173.5,419.5C 173.5,310.167 173.5,200.833 173.5,91.5 Z"/></g>
<g><path style="opacity:1" fill="#d57b81" d="M 502.5,91.5 C 447.833,91.5 393.167,91.5 338.5,91.5C 338.5,200.833 338.5,310.167 338.5,419.5C 393.167,419.5 447.833,419.5 502.5,419.5C 447.669,420.499 392.669,420.832 337.5,420.5C 337.5,310.833 337.5,201.167 337.5,91.5C 392.5,90.1667 447.5,90.1667 502.5,91.5 Z"/></g>
<g><path style="opacity:1" fill="#ce2b37" d="M 502.5,91.5 C 502.5,200.833 502.5,310.167 502.5,419.5C 447.833,419.5 393.167,419.5 338.5,419.5C 338.5,310.167 338.5,200.833 338.5,91.5C 393.167,91.5 447.833,91.5 502.5,91.5 Z"/></g>
</svg>
