<?xml version="1.0" encoding="UTF-8"?>
<!DOCTYPE svg PUBLIC "-//W3C//DTD SVG 1.1//EN" "http://www.w3.org/Graphics/SVG/1.1/DTD/svg11.dtd">
<svg xmlns="http://www.w3.org/2000/svg" version="1.1" width="512px" height="512px" style="shape-rendering:geometricPrecision; text-rendering:geometricPrecision; image-rendering:optimizeQuality; fill-rule:evenodd; clip-rule:evenodd" xmlns:xlink="http://www.w3.org/1999/xlink">
<g><path style="opacity:1" fill="#fefdfe" d="M 16.5,75.5 C 26.5,75.5 36.5,75.5 46.5,75.5C 95.848,108.934 145.348,142.267 195,175.5C 195.5,142.168 195.667,108.835 195.5,75.5C 202.167,75.5 208.833,75.5 215.5,75.5C 215.5,195.5 215.5,315.5 215.5,435.5C 208.833,435.5 202.167,435.5 195.5,435.5C 195.667,402.165 195.5,368.832 195,335.5C 145.348,368.733 95.848,402.066 46.5,435.5C 36.5,435.5 26.5,435.5 16.5,435.5C 75.5953,395.442 134.929,355.609 194.5,316C 177.833,315.333 161.167,315.333 144.5,316C 101.471,345.843 58.471,375.676 15.5,405.5C 15.5,398.833 15.5,392.167 15.5,385.5C 48.4709,362.343 81.4709,339.176 114.5,316C 81.5017,315.5 48.5017,315.333 15.5,315.5C 15.5,308.833 15.5,302.167 15.5,295.5C 75.5,295.5 135.5,295.5 195.5,295.5C 195.5,268.833 195.5,242.167 195.5,215.5C 135.5,215.5 75.5,215.5 15.5,215.5C 15.5,208.833 15.5,202.167 15.5,195.5C 48.5017,195.667 81.5017,195.5 114.5,195C 81.4709,171.824 48.4709,148.657 15.5,125.5C 15.5,118.833 15.5,112.167 15.5,105.5C 58.471,135.324 101.471,165.157 144.5,195C 161.167,195.667 177.833,195.667 194.5,195C 134.929,155.391 75.5953,115.558 16.5,75.5 Z"/></g>
<g><path style="opacity:1" fill="#0253b5" d="M 46.5,75.5 C 96.1667,75.5 145.833,75.5 195.5,75.5C 195.667,108.835 195.5,142.168 195,175.5C 145.348,142.267 95.848,108.934 46.5,75.5 Z"/></g>
<g><path style="opacity:1" fill="#d70026" d="M 215.5,75.5 C 242.167,75.5 268.833,75.5 295.5,75.5C 295.5,195.5 295.5,315.5 295.5,435.5C 268.833,435.5 242.167,435.5 215.5,435.5C 215.5,315.5 215.5,195.5 215.5,75.5 Z"/></g>
<g><path style="opacity:1" fill="#fefdfe" d="M 295.5,75.5 C 302.167,75.5 308.833,75.5 315.5,75.5C 315.333,108.835 315.5,142.168 316,175.5C 365.652,142.267 415.152,108.934 464.5,75.5C 474.5,75.5 484.5,75.5 494.5,75.5C 435.405,115.558 376.071,155.391 316.5,195C 333.167,195.667 349.833,195.667 366.5,195C 409.529,165.157 452.529,135.324 495.5,105.5C 495.5,112.167 495.5,118.833 495.5,125.5C 462.529,148.657 429.529,171.824 396.5,195C 429.498,195.5 462.498,195.667 495.5,195.5C 495.5,202.167 495.5,208.833 495.5,215.5C 435.5,215.5 375.5,215.5 315.5,215.5C 315.5,242.167 315.5,268.833 315.5,295.5C 375.5,295.5 435.5,295.5 495.5,295.5C 495.5,302.167 495.5,308.833 495.5,315.5C 462.498,315.333 429.498,315.5 396.5,316C 429.529,339.176 462.529,362.343 495.5,385.5C 495.5,392.167 495.5,398.833 495.5,405.5C 452.529,375.676 409.529,345.843 366.5,316C 349.833,315.333 333.167,315.333 316.5,316C 376.071,355.609 435.405,395.442 494.5,435.5C 484.5,435.5 474.5,435.5 464.5,435.5C 415.152,402.066 365.652,368.733 316,335.5C 315.5,368.832 315.333,402.165 315.5,435.5C 308.833,435.5 302.167,435.5 295.5,435.5C 295.5,315.5 295.5,195.5 295.5,75.5 Z"/></g>
<g><path style="opacity:1" fill="#0153b5" d="M 315.5,75.5 C 365.167,75.5 414.833,75.5 464.5,75.5C 415.152,108.934 365.652,142.267 316,175.5C 315.5,142.168 315.333,108.835 315.5,75.5 Z"/></g>
<g><path style="opacity:1" fill="#d80528" d="M 16.5,75.5 C 75.5953,115.558 134.929,155.391 194.5,195C 177.833,195.667 161.167,195.667 144.5,195C 101.471,165.157 58.471,135.324 15.5,105.5C 15.1726,95.3194 15.506,85.3194 16.5,75.5 Z"/></g>
<g><path style="opacity:1" fill="#d80529" d="M 494.5,75.5 C 495.494,85.3194 495.827,95.3194 495.5,105.5C 452.529,135.324 409.529,165.157 366.5,195C 349.833,195.667 333.167,195.667 316.5,195C 376.071,155.391 435.405,115.558 494.5,75.5 Z"/></g>
<g><path style="opacity:1" fill="#0253b5" d="M 15.5,125.5 C 48.4709,148.657 81.4709,171.824 114.5,195C 81.5017,195.5 48.5017,195.667 15.5,195.5C 15.5,172.167 15.5,148.833 15.5,125.5 Z"/></g>
<g><path style="opacity:1" fill="#0253b5" d="M 495.5,125.5 C 495.5,148.833 495.5,172.167 495.5,195.5C 462.498,195.667 429.498,195.5 396.5,195C 429.529,171.824 462.529,148.657 495.5,125.5 Z"/></g>
<g><path style="opacity:1" fill="#d70026" d="M 15.5,215.5 C 75.5,215.5 135.5,215.5 195.5,215.5C 195.5,242.167 195.5,268.833 195.5,295.5C 135.5,295.5 75.5,295.5 15.5,295.5C 15.5,268.833 15.5,242.167 15.5,215.5 Z"/></g>
<g><path style="opacity:1" fill="#d70026" d="M 495.5,215.5 C 495.5,242.167 495.5,268.833 495.5,295.5C 435.5,295.5 375.5,295.5 315.5,295.5C 315.5,268.833 315.5,242.167 315.5,215.5C 375.5,215.5 435.5,215.5 495.5,215.5 Z"/></g>
<g><path style="opacity:1" fill="#0253b5" d="M 15.5,315.5 C 48.5017,315.333 81.5017,315.5 114.5,316C 81.4709,339.176 48.4709,362.343 15.5,385.5C 15.5,362.167 15.5,338.833 15.5,315.5 Z"/></g>
<g><path style="opacity:1" fill="#d80529" d="M 16.5,435.5 C 15.506,425.681 15.1726,415.681 15.5,405.5C 58.471,375.676 101.471,345.843 144.5,316C 161.167,315.333 177.833,315.333 194.5,316C 134.929,355.609 75.5953,395.442 16.5,435.5 Z"/></g>
<g><path style="opacity:1" fill="#d80629" d="M 495.5,405.5 C 495.827,415.681 495.494,425.681 494.5,435.5C 435.405,395.442 376.071,355.609 316.5,316C 333.167,315.333 349.833,315.333 366.5,316C 409.529,345.843 452.529,375.676 495.5,405.5 Z"/></g>
<g><path style="opacity:1" fill="#0253b5" d="M 495.5,315.5 C 495.5,338.833 495.5,362.167 495.5,385.5C 462.529,362.343 429.529,339.176 396.5,316C 429.498,315.5 462.498,315.333 495.5,315.5 Z"/></g>
<g><path style="opacity:1" fill="#0153b5" d="M 195.5,435.5 C 145.833,435.5 96.1667,435.5 46.5,435.5C 95.848,402.066 145.348,368.733 195,335.5C 195.5,368.832 195.667,402.165 195.5,435.5 Z"/></g>
<g><path style="opacity:1" fill="#0153b5" d="M 464.5,435.5 C 414.833,435.5 365.167,435.5 315.5,435.5C 315.333,402.165 315.5,368.832 316,335.5C 365.652,368.733 415.152,402.066 464.5,435.5 Z"/></g>
</svg>
