/* XPM */
static char *_a1cd1c285cc4dbef3300012d16ec44012ACntsjDp8ZxJSF[] = {
/* columns rows colors chars-per-pixel */
"64 64 10 1 ",
"  c None",
". c #161717",
"X c #3F1616",
"o c gray19",
"O c #BE002E",
"+ c #E21245",
"@ c #FFAE00",
"# c #FFDB00",
"$ c #04EEFF",
"% c white",
/* pixels */
"                         ooooooooooooooooooooooooooo            ",
"                         ooooooooooo....o..ooooooooo            ",
"                         oooooooo...oooooooo.ooo..oo            ",
"                         ooo..ooooooooooo...ooooooooo           ",
"                         oooo..oooooooooooo..oooooooo           ",
"                         oooooooooooooooooooooooooooo           ",
"                           oooooooo...oooooooooo..ooooo         ",
"                            oooooooooooooooooooooooooo..        ",
"                                oooooooooo............OO........",
"                                      .....OOOOOOOOOOOOOOOOOOOO.",
"                                     ..OO@OOOO@@#OOOOOOOOOOOO@@O",
"                                    ..OOO@OOOOOOOOOOOOOOOOOOOOOO",
"                                    .OOOXXOOOOOOOOOOOOOOOOOOOOOO",
"                                   ..XOOXXOOOOOOO@@OOOOOOOOOOOOO",
"%%%%%%%%%%%%%%%%%%%%%%%%%%%%%      .X@OXXXXXOOOOOOOOOOOOO@@OOOOO",
"%%%%%%%%%%%%%%%%%%%%%%%%%%%%%     ..X+@XXXXXXOOOOOOOOOOOOOOOOOXX",
"$$$$$$$$$$$$$$$$$$$$$$$$$$$%%     .XX@XXXXXXXOXXXXXXXXXOOXXXXXXX",
"$$$$$$$$$$$$$$$$$$$$$$$$$$$%%    .XX+@XXXXXXOOXXXXXXXXXOXXXXXXXX",
"$$$$$$$$$$$$$$$$$$$$$$$$$$$%%   ..XX+XXXXXXOOXXXXXXXXXOOXXXXXXXX",
"$$$$$$$$$$$$$$$$$$$$$$$$$$$%% ...XXXXXXXXXXOXXXXXXXXXOOXXXXXXXXX",
"$$$$$$$$$$$$$$$$$$$$$$$$$$$%%..XXXXXXXXXXXO#XXXXXXXXXOXXXXXXXXXX",
"$$$$$$$$$$$$$$$$$$$$$$$$$$$%%XXXXXXXXXXXXOOXXXXXXXXXO#@XXXXXXXXX",
"$$$$$$$$$$$$$$$$$$$$$$$$$$$%%XXXXXXXXXXXXXXXXXXXXX+XO@XXXXXXXXXX",
"$$%%%%%%%%%%%%%%%$$$$$$$$$$%%XXXXXXXXXXXXXXXXXXXXXXOOXXXXXXXXXXX",
"$%$$$$$$$$$$$$$$$%$$$$$$$$$%%XXXXXXXXXXXXXXXXXXXXXXXXXXXXXXXXXXX",
"$%$%%%%%%$%%%%%%$%$$$$$$$$$%%XXXXXXXXXXXXXXXXXXXXXXXXXXXXXXXXXXX",
"$%$$$%%$$$$$%%$$$%$$$$$$$$$%%XXXXXXXXXXXXXXXXXXXXXXXXXXXXXXXXXXX",
"$%$$$%%%$$$$%%$$$%$$$$$$$$$%%XXXXXXXXXXXXXXXXXXXXXXXXXXXXXXXXXXX",
"$%$$$%%%%$$$%%$$$%$$$$$$$$$%%XXXXXXXXXXXXXXXXXXXXXXXXXXXXXXXXXXX",
"$%$$$%%$%%$$%%$$$%$$$$$$$$$%%XXXXXXXXXXXXX%%%%%%%%%%%%%%%%%%%%%%",
"$%$$$%%$$%$$%%$$$%$$$$$$$$$%%XXXXXXXXXXXXX%%%%%%%%%%%%%%%%%%%%%%",
"$%$$$%%$$%%$%%$$$%$$$$$$$$$%%XXXXXXXXXXXXX%%$$$$$$$$$$$$$$$$$$$$",
"$%$$$%%$$$%%%%$$$%$$$$$$$$$%%XXXXXXXXXXXXX%%$$$$$$$$$$$$$$$$$$$$",
"$%$$$%%$$$$%%%$$$%$$$$$$$$$%%XXXXXXXXXXXXX%%$$$$$$$$$$$$$$$$$$$$",
"$%$$$%%$$$$$%%$$$%$$$$$$$$$%%%%%%%%%%%%%%%%%$$$$$$$$$$$$$$$$$$$$",
"$%$%%%%%%$%%%%%%$%$$$$$$$$$%%%%%%%%%%%%%%%%%$$$$$$$$$$$$$$$$$$$$",
"$%$$$$$$$$$$$$$$$%$$$$$$$$$%%$$$$$$$$$$$$$%%$$$$$$$$$$$$$$$$$$$$",
"$$%%%%%%%%%%%%%%%$$$$$$$$$$%%$$$$$$$$$$$$$%%$$$$$$$$$$$$$$$$$$$$",
"$$$$$$$$$$$$$$$$$$$$$$$$$$$%%$$$$$$$$$$$$$%%$$$$$$$$$$$$$$$$$$$$",
"$$$$$$$$$$$$$$$$$$$$$$$$$$$%%$$$$$$$$$$$$$%%$$$$$$$$$$$$$$$$$$$$",
"$$$$$$$$$$$$$$$$$$$$$$$$$$$%%$$$$$$$$$$$$$%%$$$$$$$$$$$$$$$$$$$$",
"$$$$$$$$$$$$$$$$$$$$$$$$$$$%%$$$$$$$$$$$$$%%$$$$$$$$$$$$$$$$$$$$",
"$$$$$$$$$$$$$$$$$$$$$$$$$$$%%$$$$$$$$$$$$$%%$$$$$$$$$$$$$$$$$$$$",
"$$$$$$$$$$$$$$$$$$$$$$$$$$$%%$$$$$$$$$$$$$%%$$$$$$$$$$$$$$$$$$$$",
"$$$$$$$$$$$$$$$$$$$$$$$$$$$%%$$$$$$$$$$$$$%%$$$$$$$$$$$$$$$$$$$$",
"$$$$$$$$$$$$$$$$$$$$$$$$$$$%%$$$$$$$$$$$$$%%$$$$$$$$$$$$$$$$$$$$",
"$$$$$$$$$$$$$$$$$$$$$$$$$$$%%$$$$$$$$$$$$$%%$$$$$$$$$$$$$$$$$$$$",
"$$$$$$$$$$$$$$$$$$$$$$$$$$$%%$$$$$$$$$$$$$%%$$$$$$$$$$$$$$$$$$$$",
"$$$$$$$$$$$$$$$$$$$$$$$$$$$%%$$$$$$$$$$$$$%%$$$$$$$$$$$$$$$$$$$$",
"$$$$$$$$$$$$$$$$$$$$$$$$$$$%%$$$$$$$$$$$$$%%$$$$$$$$$$$$$$$$$$$$",
"$$$$$$$$$$$$$$$$$$$$$$$$$$$%%$$$$$$$$$$$$$%%$$$$$$$$$$$$$$$$$$$$",
"$$$$$$$$$$$$$$$$$$$$$$$$$$$%%$$$$$$$$$$$$$%%$$$$$$$$$$$$$$$$$$$$",
"$$$$$$$$$$$$$$$$$$$$$$$$$$$%%$$$$$$$$$$$$$%%$$$$$$$$$$$$$$$$$$$$",
"$$$$$$$$$$$$$$$$$$$$$$$$$$$%%$$$$$$$$$$$$$%%$$$$$$$$$$$$$$$$$$$$",
"$$$$$$$$$$$$$$$$$$$$$$$$$$$%%$$$$$$$$$$$$$%%$$$$$$$$$$$$$$$$$$$$",
"$$$$$$$$$$$$$$$$$$$$$$$$$$$%%$$$$$$$$$$$$$%%$$$$$$$$$$$$$$$$$$$$",
"$$$$$$$$$$$$$$$$$$$$$$$$$$$%%$$$$$$$$$$$$$%%$$$$$$$$$$$$$$$$$$$$",
"$$$$$$$$$$$$$$$$$$$$$$$$$$$%%$$$$$$$$$$$$$%%$$$$$$$$$$$$$$$$$$$$",
"$$$$$$$$$$$$$$$$$$$$$$$$$$$%%$$$$$$$$$$$$$%%$$$$$$$$$$$$$$$$$$$$",
"$$$$$$$$$$$$$$$$$$$$%%%%$$$%%$$$$%%%%$$$$$%%$$%%%%$$$$$$$$$$$$$$",
"$$$$$$$$$$$$$$$$$$$$%%%%$$$%%$$$$%%%%$$$$$%%$$%%%%$$$$$$$$$$$$$$",
"$$$$$$$$$$$$$$$$$$$$%%%%$$$%%$$$$%%%%$$$$$%%$$%%%%$$$$$$$$$$$$$$",
"$$$$$$$$$$$$$$$$$$$$%%%%$$$%%$$$$%%%%$$$$$%%$$%%%%$$$$$$$$$$$$$$",
"$$$$$$$$$$$$$$$$$$$$%%%%$$$%%$$$$%%%%$$$$$%%$$%%%%$$$$$$$$$$$$$$"
};
